<svg xmlns="http://www.w3.org/2000/svg" width="60" 
height="20" 
viewBox="0 0 60 13.857"><path d="M690.406,1604.4h2.9v-13.616h-2.9Zm18.38-7.86v-1.209h-2.733v9.093h2.733v-4.764c0-1.379,1.548-1.983,2.636-1.693h.024v-2.636a3.182,3.182,0,0,0-2.66,1.209Zm-9.335,5.756a2.445,2.445,0,1,1,2.563-2.442,2.494,2.494,0,0,1-2.563,2.442Zm2.539-6.36a4.8,4.8,0,1,0-2.781,8.706,4.986,4.986,0,0,0,2.781-.87v.629h2.37V1595.3h-2.37Zm16.276-.871a3.317,3.317,0,0,0-2.805,1.258V1595.3h-2.733v9.094h2.733v-4.982a1.916,1.916,0,0,1,2.056-2.056,1.786,1.786,0,0,1,1.886,2.032v4.981h2.733v-5.78a3.607,3.607,0,0,0-3.87-3.531Zm17.654,6.119a1.717,1.717,0,1,0,1.717,1.717,1.724,1.724,0,0,0-1.717-1.717Zm-7.811,1.112a2.445,2.445,0,1,1,2.563-2.442,2.494,2.494,0,0,1-2.563,2.442Zm2.563-6.36a4.8,4.8,0,1,0-2.781,8.706,4.986,4.986,0,0,0,2.781-.87v.629h2.37V1595.3h-2.37Zm4.087-.459h.121a.11.11,0,0,1,.121.1c0,.072-.024.1-.121.1h-.121Zm0,.314h.121l.121.266h.121l-.121-.266a.191.191,0,0,0,.121-.193.223.223,0,0,0-.242-.218h-.242v.677h.121Zm-57.122,8.61h3.023v-13.616h-3.023Zm10.786-13.616H685.5a8.058,8.058,0,0,1-4.4,7.038l4.522,6.579h3.676l-4.111-5.974a10.924,10.924,0,0,0,3.24-7.643Zm46.433,4.4a.532.532,0,1,1-.532.532.537.537,0,0,1,.532-.532Zm0,1.185a.653.653,0,1,0-.653-.653.65.65,0,0,0,.653.653Z" transform="translate(-677.637 -1590.779)"/></svg>
