<svg width="60" height="20" viewBox="0 0 60 20" fill="none" xmlns="http://www.w3.org/2000/svg">
<g clip-path="url(#clip0)">
<path fill-rule="evenodd" clip-rule="evenodd" d="M31.03 6.19402C30.996 8.89402 33.435 10.399 35.273 11.294C37.161 12.213 37.795 12.802 37.788 13.624C37.774 14.882 36.282 15.436 34.888 15.458C33.1547 15.4958 31.4407 15.0882 29.91 14.274L29.033 18.38C30.751 19.0492 32.5803 19.3869 34.424 19.375C39.516 19.375 42.847 16.862 42.865 12.965C42.885 8.01903 36.024 7.74502 36.071 5.53502C36.087 4.86502 36.727 4.14903 38.129 3.96703C39.7688 3.80989 41.4205 4.09945 42.909 4.80502L43.761 0.832016C42.3105 0.285944 40.7739 0.0038394 39.224 -0.000976562C34.431 -0.000976562 31.061 2.54702 31.033 6.19302L31.03 6.19402ZM51.949 0.341019C51.5071 0.337661 51.0743 0.466884 50.7065 0.71199C50.3388 0.957096 50.053 1.30683 49.886 1.71602L42.61 19.085H47.7L48.712 16.285H54.93L55.517 19.085H60L56.087 0.344025L51.949 0.341019ZM52.661 5.40402L54.129 12.441H50.108L52.661 5.40402ZM24.861 0.341019L20.851 19.085H25.7L29.709 0.344025L24.861 0.341019ZM17.688 0.341019L12.641 13.097L10.6 2.25203C10.5165 1.71924 10.2452 1.23388 9.83514 0.883606C9.42509 0.533335 8.90329 0.341246 8.364 0.342026H0.113998L0 0.885025C1.65504 1.21425 3.26225 1.74975 4.784 2.47902C5.10097 2.63182 5.37332 2.86358 5.57488 3.15201C5.77645 3.44043 5.90046 3.77584 5.935 4.12602L9.8 19.085H14.924L22.779 0.344025L17.688 0.341019Z" fill="#1A1F71"/>
</g>
<defs>
<clipPath id="clip0">
<rect width="60" height="19.376" fill="white"/>
</clipPath>
</defs>
</svg>
