<svg xmlns="http://www.w3.org/2000/svg" xmlns:xlink="http://www.w3.org/1999/xlink" width="113.374" height="14" viewBox="0 0 113.374 14"><defs><style>.a{fill:none;}.b{clip-path:url(#a);}.c{fill:#2f3147;}</style><clipPath id="a"><path class="a" d="M0-96.228H113.374v-14H0Z" transform="translate(0 110.228)"/></clipPath></defs><g transform="translate(0 110.228)"><g class="b" transform="translate(0 -110.228)"><path class="c" d="M0-108.283v2.551H3.7v10.863H6.728v-10.863H10.41v-2.551Z" transform="translate(0 108.53)"/><path class="c" d="M158.242-94.869h3.045v-13.414h-3.045Z" transform="translate(-138.144 108.53)"/><path class="c" d="M271.467-101.823c1.667,0,2.469-.741,2.469-2.14s-.864-1.913-2.469-1.913H269.8v4.053Zm-4.711-6.46h4.9c2.922,0,5.246,1.07,5.246,4.32,0,3.148-2.407,4.547-5.246,4.547H269.8v4.547h-3.045Z" transform="translate(-232.875 108.53)"/><path class="c" d="M410.151-100.332a5.338,5.338,0,0,0,3.292,1.4c1.255,0,1.872-.494,1.872-1.3,0-.843-.761-1.111-1.934-1.6l-1.728-.741a3.9,3.9,0,0,1-2.716-3.662c0-2.222,2-3.991,4.773-3.991a6.211,6.211,0,0,1,4.321,1.769l-1.522,1.913a4.4,4.4,0,0,0-2.8-1.07c-1.029,0-1.708.453-1.708,1.214,0,.823.885,1.111,2.057,1.584l1.708.7a3.7,3.7,0,0,1,2.654,3.642c0,2.222-1.852,4.156-5.041,4.156a7.435,7.435,0,0,1-4.979-1.934Z" transform="translate(-356.531 110.228)"/><path class="c" d="M558.394-108.283h8.414v2.551h-5.369v2.7h3.686v2.53h-3.686v3.086h5.575v2.551h-8.62Z" transform="translate(-487.473 108.53)"/><path class="c" d="M709.8-102.111h1.543c1.584,0,2.448-.679,2.448-2s-.864-1.769-2.448-1.769H709.8Zm4.218,7.242L711.444-99.7H709.8v4.835h-3.045v-13.414h4.835c2.839,0,5.184.987,5.184,4.176a3.949,3.949,0,0,1-2.387,3.868l3.024,5.37Z" transform="translate(-616.989 108.53)"/><path class="c" d="M868.086-26.336a1.786,1.786,0,0,1-1.786,1.786,1.786,1.786,0,0,1-1.786-1.786,1.786,1.786,0,0,1,1.786-1.786,1.786,1.786,0,0,1,1.786,1.786" transform="translate(-754.713 38.551)"/></g></g></svg>